<?xml version="1.0" encoding="utf-8"?>
<!-- Generator: Adobe Illustrator 24.1.2, SVG Export Plug-In . SVG Version: 6.00 Build 0)  -->
<svg version="1.0" id="Layer_1" xmlns="http://www.w3.org/2000/svg" xmlns:xlink="http://www.w3.org/1999/xlink" x="0px" y="0px"
	 viewBox="0 0 131.39 86.9" style="enable-background:new 0 0 131.39 86.9;" xml:space="preserve">
<style type="text/css">
	.st0{fill:#FFFFFF;}
	.st1{fill:#F7B600;}
	.st2{fill:#1A1F71;}
</style>
<rect x="3.29" y="3.48" class="st0" width="124.42" height="79.03"/>
<rect x="5.36" y="69.67" class="st1" width="120.27" height="10.78"/>
<rect x="5.36" y="5.56" class="st2" width="120.27" height="10.78"/>
<path class="st2" d="M53.51,28.22L41.08,57.86h-8.1L26.86,34.2c-0.37-1.45-0.69-1.99-1.82-2.6c-1.84-1-4.89-1.94-7.56-2.52
	l0.18-0.86h13.05c1.66,0,3.16,1.11,3.54,3.02l3.23,17.15l7.98-20.17H53.51z M85.26,48.18c0.03-7.82-10.81-8.26-10.74-11.75
	c0.02-1.06,1.04-2.19,3.25-2.48c1.1-0.14,4.13-0.26,7.56,1.33l1.34-6.29c-1.84-0.67-4.22-1.31-7.17-1.31
	c-7.58,0-12.91,4.03-12.96,9.8c-0.05,4.27,3.81,6.65,6.71,8.07c2.99,1.45,3.99,2.38,3.98,3.68c-0.02,1.99-2.38,2.87-4.59,2.9
	c-3.86,0.06-6.09-1.04-7.88-1.87l-1.39,6.5c1.79,0.82,5.1,1.54,8.52,1.57C79.97,58.32,85.24,54.34,85.26,48.18 M105.28,57.86h7.09
	l-6.19-29.64h-6.54c-1.47,0-2.72,0.85-3.27,2.17L84.86,57.86h8.05l1.6-4.43h9.84L105.28,57.86z M96.72,47.36l4.04-11.13l2.32,11.13
	H96.72z M64.46,28.22l-6.34,29.64h-7.67l6.34-29.64H64.46z"/>
</svg>
